# Blender v3.2.1 OBJ File: 'NATO Heavy Machine Gun Position.blend'
# www.blender.org
mtllib NATO Heavy Machine Gun.mtl
o NATO_Heavy_Machine_Gun_Cylinder.001
v -0.000000 1.553878 4.318803
v -0.000000 1.506668 5.933800
v 0.098514 1.513072 4.318803
v 0.065131 1.479689 5.933800
v 0.139320 1.414558 4.318803
v 0.092109 1.414558 5.933800
v 0.098514 1.316044 4.318803
v 0.065131 1.349427 5.933800
v -0.000000 1.275238 4.318803
v -0.000000 1.322449 5.933800
v -0.098514 1.316044 4.318803
v -0.065131 1.349427 5.933800
v -0.139320 1.414558 4.318803
v -0.092109 1.414558 5.933800
v -0.098514 1.513072 4.318803
v -0.065131 1.479689 5.933800
v 0.098514 1.513072 5.933800
v -0.000000 1.553878 5.933800
v 0.139320 1.414558 5.933800
v 0.098514 1.316044 5.933800
v -0.000000 1.275238 5.933800
v -0.098514 1.316044 5.933800
v -0.139320 1.414558 5.933800
v -0.098514 1.513072 5.933800
v 0.065131 1.479689 5.582888
v -0.000000 1.506668 5.582888
v 0.092109 1.414558 5.582888
v 0.065131 1.349427 5.582888
v -0.000000 1.322449 5.582888
v -0.065131 1.349427 5.582888
v -0.092109 1.414558 5.582888
v -0.065131 1.479689 5.582888
v -0.117540 1.297018 5.550006
v -0.117540 1.297018 5.510095
v -0.117540 1.297018 5.146257
v -0.117540 1.297018 5.106345
v -0.117540 1.297018 4.742508
v -0.117540 1.297018 4.702596
v -0.166226 1.414558 5.550006
v -0.166226 1.414558 5.510095
v -0.166226 1.414558 5.146257
v -0.166226 1.414558 5.106345
v -0.166226 1.414558 4.742508
v -0.166226 1.414558 4.702596
v -0.000000 1.580785 5.510095
v -0.000000 1.580785 5.550006
v -0.117540 1.532098 5.550006
v -0.117540 1.532098 5.510095
v -0.000000 1.580785 5.106345
v -0.000000 1.580785 5.146257
v -0.117540 1.532098 5.146257
v -0.117540 1.532098 5.106345
v -0.000000 1.580785 4.702596
v -0.000000 1.580785 4.742508
v -0.117540 1.532098 4.742508
v -0.117540 1.532098 4.702596
v -0.000000 1.553878 4.742508
v -0.000000 1.553878 4.702596
v -0.000000 1.553878 5.146257
v -0.000000 1.553878 5.106345
v -0.000000 1.553878 5.550006
v -0.000000 1.553878 5.510095
v 0.098514 1.513072 5.510095
v 0.098514 1.513072 5.550006
v 0.098514 1.513072 5.106345
v 0.098514 1.513072 5.146257
v 0.098514 1.513072 4.702596
v 0.098514 1.513072 4.742508
v 0.139320 1.414558 5.510095
v 0.139320 1.414558 5.550006
v 0.139320 1.414558 5.106345
v 0.139320 1.414558 5.146257
v 0.139320 1.414558 4.702596
v 0.139320 1.414558 4.742508
v 0.098514 1.316044 5.510095
v 0.098514 1.316044 5.550006
v 0.098514 1.316044 5.106345
v 0.098514 1.316044 5.146257
v 0.098514 1.316044 4.702596
v 0.098514 1.316044 4.742508
v -0.000000 1.275238 5.510095
v -0.000000 1.275238 5.550006
v -0.000000 1.275238 5.106345
v -0.000000 1.275238 5.146257
v -0.000000 1.275238 4.702596
v -0.000000 1.275238 4.742508
v -0.098514 1.316044 5.510095
v -0.098514 1.316044 5.550006
v -0.098514 1.316044 5.106345
v -0.098514 1.316044 5.146257
v -0.098514 1.316044 4.702596
v -0.098514 1.316044 4.742508
v -0.139320 1.414558 5.510095
v -0.139320 1.414558 5.550006
v -0.139320 1.414558 5.106345
v -0.139320 1.414558 5.146257
v -0.139320 1.414558 4.702596
v -0.139320 1.414558 4.742508
v -0.098514 1.513072 5.510095
v -0.098514 1.513072 5.550006
v -0.098514 1.513072 5.106345
v -0.098514 1.513072 5.146257
v -0.098514 1.513072 4.702596
v -0.098514 1.513072 4.742508
v -0.000000 1.248332 4.702596
v -0.000000 1.248332 4.742508
v -0.000000 1.248332 5.106345
v -0.000000 1.248332 5.146257
v -0.000000 1.248332 5.510095
v -0.000000 1.248332 5.550006
v 0.117540 1.297018 4.702596
v 0.117540 1.297018 4.742508
v 0.117540 1.297018 5.106345
v 0.117540 1.297018 5.146257
v 0.117540 1.297018 5.510095
v 0.117540 1.297018 5.550006
v 0.166226 1.414558 4.702596
v 0.166226 1.414558 4.742508
v 0.166226 1.414558 5.106345
v 0.166226 1.414558 5.146257
v 0.166226 1.414558 5.510095
v 0.166226 1.414558 5.550006
v 0.117540 1.532098 4.702596
v 0.117540 1.532098 4.742508
v 0.117540 1.532098 5.106345
v 0.117540 1.532098 5.146257
v 0.117540 1.532098 5.510095
v 0.117540 1.532098 5.550006
vt 0.109966 0.849510
vt 0.109966 0.849510
vt 0.109966 0.849510
vt 0.109966 0.849510
vt 0.109966 0.849510
vt 0.109966 0.849510
vt 0.109966 0.849510
vt 0.109966 0.849510
vt 0.109966 0.849510
vt 0.109966 0.849510
vt 0.109966 0.849510
vt 0.109966 0.849510
vt 0.109966 0.849510
vt 0.109966 0.849510
vt 0.109966 0.849510
vt 0.109966 0.849510
vt 0.109966 0.849510
vt 0.109966 0.849510
vt 0.109966 0.849510
vt 0.109966 0.849510
vt 0.109966 0.849510
vt 0.109966 0.849510
vt 0.109966 0.849510
vt 0.109966 0.849510
vt 0.109966 0.849510
vt 0.109966 0.849510
vt 0.109966 0.849510
vt 0.109966 0.849510
vt 0.109966 0.849510
vt 0.109966 0.849510
vt 0.109966 0.849510
vt 0.109966 0.849510
vt 0.109966 0.849510
vt 0.109966 0.849510
vt 0.109966 0.849510
vt 0.109966 0.849510
vt 0.109966 0.849510
vt 0.109966 0.849510
vt 0.109966 0.849510
vt 0.109966 0.849510
vt 0.109966 0.849510
vt 0.109966 0.849510
vt 0.109966 0.849510
vt 0.172716 0.888882
vt 0.172716 0.888882
vt 0.172716 0.888882
vt 0.172716 0.888882
vt 0.172716 0.888882
vt 0.172716 0.888882
vt 0.172716 0.888882
vt 0.172716 0.888882
vt 0.109966 0.849510
vt 0.109966 0.849510
vt 0.109966 0.849510
vt 0.109966 0.849510
vt 0.109966 0.849510
vt 0.109966 0.849510
vt 0.109966 0.849510
vt 0.109966 0.849510
vt 0.109966 0.849510
vt 0.109966 0.849510
vt 0.109966 0.849510
vt 0.109966 0.849510
vt 0.109966 0.849510
vt 0.675012 0.576675
vt 0.675012 0.576675
vt 0.675012 0.576675
vt 0.675012 0.576675
vt 0.109966 0.849510
vt 0.109966 0.849510
vt 0.109966 0.849510
vt 0.109966 0.849510
vt 0.109966 0.849510
vt 0.109966 0.849510
vt 0.109966 0.849510
vt 0.109966 0.849510
vt 0.109966 0.849510
vt 0.109966 0.849510
vt 0.109966 0.849510
vt 0.109966 0.849510
vt 0.109966 0.849510
vt 0.109966 0.849510
vt 0.109966 0.849510
vt 0.109966 0.849510
vt 0.109966 0.849510
vt 0.109966 0.849510
vt 0.109966 0.849510
vt 0.109966 0.849510
vt 0.109966 0.849510
vt 0.109966 0.849510
vt 0.109966 0.849510
vt 0.109966 0.849510
vt 0.675012 0.576675
vt 0.675012 0.576675
vt 0.675012 0.576675
vt 0.675012 0.576675
vt 0.675012 0.576675
vt 0.675012 0.576675
vt 0.675012 0.576675
vt 0.675012 0.576675
vt 0.675012 0.576675
vt 0.675012 0.576675
vt 0.675012 0.576675
vt 0.675012 0.576675
vt 0.675012 0.576675
vt 0.675012 0.576675
vt 0.675012 0.576675
vt 0.675012 0.576675
vt 0.675012 0.576675
vt 0.675012 0.576675
vt 0.675012 0.576675
vt 0.675012 0.576675
vt 0.675012 0.576675
vt 0.675012 0.576675
vt 0.675012 0.576675
vt 0.675012 0.576675
vt 0.675012 0.576675
vt 0.675012 0.576675
vt 0.675012 0.576675
vt 0.675012 0.576675
vt 0.675012 0.576675
vt 0.675012 0.576675
vt 0.675012 0.576675
vt 0.675012 0.576675
vt 0.675012 0.576675
vt 0.675012 0.576675
vt 0.675012 0.576675
vt 0.675012 0.576675
vt 0.675012 0.576675
vt 0.675012 0.576675
vt 0.675012 0.576675
vt 0.675012 0.576675
vt 0.675012 0.576675
vt 0.675012 0.576675
vt 0.675012 0.576675
vt 0.675012 0.576675
vt 0.675012 0.576675
vt 0.675012 0.576675
vt 0.675012 0.576675
vt 0.675012 0.576675
vt 0.675012 0.576675
vt 0.675012 0.576675
vt 0.675012 0.576675
vt 0.675012 0.576675
vt 0.675012 0.576675
vt 0.675012 0.576675
vt 0.675012 0.576675
vt 0.675012 0.576675
vt 0.675012 0.576675
vt 0.675012 0.576675
vt 0.675012 0.576675
vt 0.675012 0.576675
vt 0.675012 0.576675
vt 0.675012 0.576675
vt 0.675012 0.576675
vt 0.675012 0.576675
vt 0.675012 0.576675
vt 0.675012 0.576675
vt 0.675012 0.576675
vt 0.675012 0.576675
vt 0.675012 0.576675
vt 0.675012 0.576675
vt 0.675012 0.576675
vt 0.675012 0.576675
vt 0.675012 0.576675
vt 0.675012 0.576675
vt 0.675012 0.576675
vt 0.675012 0.576675
vt 0.675012 0.576675
vt 0.675012 0.576675
vt 0.675012 0.576675
vt 0.675012 0.576675
vt 0.675012 0.576675
vt 0.675012 0.576675
vt 0.675012 0.576675
vt 0.675012 0.576675
vt 0.675012 0.576675
vt 0.675012 0.576675
vt 0.675012 0.576675
vt 0.675012 0.576675
vt 0.675012 0.576675
vt 0.675012 0.576675
vt 0.675012 0.576675
vt 0.675012 0.576675
vn 0.4203 0.4203 0.8042
vn 0.5490 0.5490 0.6303
vn 0.7764 0.0000 0.6303
vn 0.5944 0.0000 0.8042
vn 0.4203 0.4203 -0.8042
vn 0.5944 0.0000 -0.8042
vn 0.4203 -0.4203 -0.8042
vn 0.4203 -0.4203 0.8042
vn -0.0000 -0.5944 -0.8042
vn -0.0000 -0.5944 0.8042
vn -0.4203 -0.4203 -0.8042
vn -0.4203 -0.4203 0.8042
vn -0.5944 -0.0000 -0.8042
vn -0.5944 -0.0000 0.8042
vn -0.0000 -0.7764 0.6303
vn -0.5490 -0.5490 0.6303
vn -0.4203 0.4203 -0.8042
vn -0.4203 0.4203 0.8042
vn 0.0000 0.5944 0.8042
vn 0.0000 0.7764 0.6303
vn 0.0000 0.7764 -0.6303
vn 0.5490 0.5490 -0.6303
vn 0.7764 -0.0000 -0.6303
vn 0.5490 -0.5490 -0.6303
vn 0.0000 -0.7764 -0.6303
vn -0.5490 -0.5490 -0.6303
vn -0.7764 -0.0000 -0.6303
vn -0.5490 0.5490 -0.6303
vn 0.5490 -0.5490 0.6303
vn -0.7764 -0.0000 0.6303
vn -0.5490 0.5490 0.6303
vn 0.0000 0.5944 -0.8042
usemtl Material
s 1
f 64/1/1 17/2/2 19/3/3 70/4/4
f 66/5/1 63/6/5 69/7/6 72/8/4
f 72/8/4 69/7/6 75/9/7 78/10/8
f 78/10/8 75/9/7 81/11/9 84/12/10
f 84/12/10 81/11/9 87/13/11 90/14/12
f 90/14/12 87/13/11 93/15/13 96/16/14
f 4/17/12 2/18/10 26/19/15 25/20/16
f 96/16/14 93/15/13 99/21/17 102/22/18
f 61/23/19 18/24/20 17/2/2 64/1/1
f 1/25/21 3/26/22 5/27/23 7/28/24 9/29/25 11/30/26 13/31/27 15/32/28
f 2/18/10 4/17/12 17/2/2 18/24/20
f 4/17/12 6/33/14 19/3/3 17/2/2
f 6/33/14 8/34/18 20/35/29 19/3/3
f 8/34/18 10/36/19 21/37/15 20/35/29
f 10/36/19 12/38/1 22/39/16 21/37/15
f 12/38/1 14/40/4 23/41/30 22/39/16
f 14/40/4 16/42/8 24/43/31 23/41/30
f 16/42/8 2/18/10 18/24/20 24/43/31
f 25/44/16 26/45/15 32/46/29 31/47/3 30/48/2 29/49/20 28/50/31 27/51/30
f 2/18/10 16/42/8 32/52/29 26/19/15
f 14/40/4 12/38/1 30/53/2 31/54/3
f 10/36/19 8/34/18 28/55/31 29/56/20
f 6/33/14 4/17/12 25/20/16 27/57/30
f 16/42/8 14/40/4 31/54/3 32/52/29
f 12/38/1 10/36/19 29/56/20 30/53/2
f 8/34/18 6/33/14 27/57/30 28/55/31
f 57/58/19 60/59/32 65/60/5 68/61/1
f 59/62/19 62/63/32 63/6/5 66/5/1
f 100/64/18 24/43/31 18/24/20 61/23/19
f 55/65/31 54/66/20 53/67/21 56/68/28
f 13/31/27 97/69/13 103/70/17 15/32/28
f 98/71/14 95/72/13 101/73/17 104/74/18
f 94/75/14 23/41/30 24/43/31 100/64/18
f 11/30/26 91/76/11 97/69/13 13/31/27
f 92/77/12 89/78/11 95/72/13 98/71/14
f 88/79/12 22/39/16 23/41/30 94/75/14
f 9/29/25 85/80/9 91/76/11 11/30/26
f 86/81/10 83/82/9 89/78/11 92/77/12
f 82/83/10 21/37/15 22/39/16 88/79/12
f 7/28/24 79/84/7 85/80/9 9/29/25
f 80/85/8 77/86/7 83/82/9 86/81/10
f 76/87/8 20/35/29 21/37/15 82/83/10
f 5/27/23 73/88/6 79/84/7 7/28/24
f 74/89/4 71/90/6 77/86/7 80/85/8
f 70/4/4 19/3/3 20/35/29 76/87/8
f 3/26/22 67/91/5 73/88/6 5/27/23
f 68/61/1 65/60/5 71/90/6 74/89/4
f 15/32/28 103/70/17 58/92/32 1/25/21
f 104/74/18 101/73/17 60/59/32 57/58/19
f 102/22/18 99/21/17 62/63/32 59/62/19
f 76/93/8 82/94/10 110/95/15 116/96/29
f 94/97/14 100/98/18 47/99/31 39/100/30
f 73/101/6 67/102/5 123/103/22 117/104/23
f 91/105/11 85/106/9 105/107/25 38/108/26
f 102/109/18 59/110/19 50/111/20 51/112/31
f 68/113/1 74/114/4 118/115/3 124/116/2
f 86/117/10 92/118/12 37/119/16 106/120/15
f 63/121/5 62/122/32 45/123/21 127/124/22
f 83/125/9 77/126/7 113/127/24 107/128/25
f 101/129/17 95/130/13 42/131/27 52/132/28
f 58/133/32 103/134/17 56/68/28 53/67/21
f 61/135/19 64/136/1 128/137/2 46/138/20
f 78/139/8 84/140/10 108/141/15 114/142/29
f 96/143/14 102/109/18 51/112/31 41/144/30
f 75/145/7 69/146/6 121/147/23 115/148/24
f 93/149/13 87/150/11 34/151/26 40/152/27
f 65/153/5 60/154/32 49/155/21 125/156/22
f 70/157/4 76/93/8 116/96/29 122/158/3
f 88/159/12 94/97/14 39/100/30 33/160/16
f 104/161/18 57/162/19 54/66/20 55/65/31
f 59/110/19 66/163/1 126/164/2 50/111/20
f 85/106/9 79/165/7 111/166/24 105/107/25
f 103/134/17 97/167/13 44/168/27 56/68/28
f 67/102/5 58/133/32 53/67/21 123/103/22
f 1/25/21 58/92/32 67/91/5 3/26/22
f 51/112/31 50/111/20 49/155/21 52/132/28
f 47/99/31 46/138/20 45/123/21 48/169/28
f 43/170/30 55/65/31 56/68/28 44/168/27
f 41/144/30 51/112/31 52/132/28 42/131/27
f 39/100/30 47/99/31 48/169/28 40/152/27
f 37/119/16 43/170/30 44/168/27 38/108/26
f 35/171/16 41/144/30 42/131/27 36/172/26
f 33/160/16 39/100/30 40/152/27 34/151/26
f 106/120/15 37/119/16 38/108/26 105/107/25
f 108/141/15 35/171/16 36/172/26 107/128/25
f 110/95/15 33/160/16 34/151/26 109/173/25
f 112/174/29 106/120/15 105/107/25 111/166/24
f 114/142/29 108/141/15 107/128/25 113/127/24
f 116/96/29 110/95/15 109/173/25 115/148/24
f 118/115/3 112/174/29 111/166/24 117/104/23
f 120/175/3 114/142/29 113/127/24 119/176/23
f 122/158/3 116/96/29 115/148/24 121/147/23
f 124/116/2 118/115/3 117/104/23 123/103/22
f 126/164/2 120/175/3 119/176/23 125/156/22
f 128/137/2 122/158/3 121/147/23 127/124/22
f 54/66/20 124/116/2 123/103/22 53/67/21
f 50/111/20 126/164/2 125/156/22 49/155/21
f 46/138/20 128/137/2 127/124/22 45/123/21
f 99/177/17 93/149/13 40/152/27 48/169/28
f 81/178/9 75/145/7 115/148/24 109/173/25
f 60/154/32 101/129/17 52/132/28 49/155/21
f 84/140/10 90/179/12 35/171/16 108/141/15
f 66/163/1 72/180/4 120/175/3 126/164/2
f 89/181/11 83/125/9 107/128/25 36/172/26
f 71/182/6 65/153/5 125/156/22 119/176/23
f 92/118/12 98/183/14 43/170/30 37/119/16
f 74/114/4 80/184/8 112/174/29 118/115/3
f 100/98/18 61/135/19 46/138/20 47/99/31
f 97/167/13 91/105/11 38/108/26 44/168/27
f 79/165/7 73/101/6 117/104/23 111/166/24
f 82/94/10 88/159/12 33/160/16 110/95/15
f 64/136/1 70/157/4 122/158/3 128/137/2
f 62/122/32 99/177/17 48/169/28 45/123/21
f 87/150/11 81/178/9 109/173/25 34/151/26
f 69/146/6 63/121/5 127/124/22 121/147/23
f 90/179/12 96/143/14 41/144/30 35/171/16
f 72/180/4 78/139/8 114/142/29 120/175/3
f 57/162/19 68/113/1 124/116/2 54/66/20
f 95/130/13 89/181/11 36/172/26 42/131/27
f 77/126/7 71/182/6 119/176/23 113/127/24
f 98/183/14 104/161/18 55/65/31 43/170/30
f 80/184/8 86/117/10 106/120/15 112/174/29
