# Blender v3.4.1 OBJ File: ''
# www.blender.org
mtllib Simulation002Center.mtl
o Simulation002Center_Plane.001
v -2.278376 -0.000000 -0.000853
v -0.236846 -0.000000 -0.557981
v -2.278376 0.500000 -0.000853
v -0.236846 0.500000 -0.557981
v -0.232776 -0.000000 0.553625
v -0.232776 0.500000 0.553624
v -2.341998 0.500000 -0.000798
v -2.341998 -0.000000 -0.000798
v -0.253595 -0.000000 -0.619357
v -0.253595 0.500000 -0.619358
v -0.249420 0.500000 0.615030
v -0.249420 -0.000000 0.615030
v 2.278376 -0.000000 -0.000853
v 0.236846 -0.000000 -0.557981
v 2.278376 0.500000 -0.000853
v 0.236846 0.500000 -0.557981
v 0.232776 -0.000000 0.553625
v 0.232776 0.500000 0.553624
v 2.341998 0.500000 -0.000798
v 2.341998 -0.000000 -0.000798
v 0.253595 -0.000000 -0.619357
v 0.253595 0.500000 -0.619358
v 0.249420 0.500000 0.615030
v 0.249420 -0.000000 0.615030
vt 0.000000 0.000000
vt 1.000000 0.000000
vt 1.000000 1.000000
vt 0.000000 1.000000
vt 0.000000 1.000000
vt 0.000000 0.000000
vt 0.000000 0.000000
vt 0.000000 1.000000
vt 1.000000 1.000000
vt 1.000000 0.000000
vt 0.000000 0.000000
vt 0.000000 1.000000
vt 0.000000 0.000000
vt 0.000000 1.000000
vt 1.000000 1.000000
vt 1.000000 0.000000
vt 0.000000 0.000000
vt 0.000000 1.000000
vt 0.000000 0.000000
vt 1.000000 0.000000
vt 1.000000 1.000000
vt 0.000000 1.000000
vt 0.000000 1.000000
vt 0.000000 0.000000
vn 0.2633 0.0000 0.9647
vn 0.2616 -0.0000 -0.9652
vn -0.2840 -0.0000 -0.9588
vn -0.2823 0.0000 0.9593
vn 0.9652 0.0000 0.2616
vn 0.9647 -0.0000 -0.2633
vn 0.0000 1.0000 0.0000
vn 0.0000 -1.0000 0.0000
vn -0.2633 0.0000 0.9647
vn -0.2616 -0.0000 -0.9652
vn 0.2840 -0.0000 -0.9588
vn 0.2823 0.0000 0.9593
vn -0.9652 0.0000 0.2616
vn -0.9647 -0.0000 -0.2633
usemtl None
s off
f 1/1/1 2/2/1 4/3/1 3/4/1
f 1/1/2 3/4/2 6/5/2 5/6/2
f 8/7/3 7/8/3 10/9/3 9/10/3
f 8/7/4 12/11/4 11/12/4 7/8/4
f 6/5/5 11/12/5 12/11/5 5/6/5
f 2/2/6 9/10/6 10/9/6 4/3/6
f 3/4/7 7/8/7 11/12/7 6/5/7
f 4/3/7 10/9/7 7/8/7 3/4/7
f 1/1/8 8/7/8 9/10/8 2/2/8
f 5/6/8 12/11/8 8/7/8 1/1/8
f 13/13/9 15/14/9 16/15/9 14/16/9
f 13/13/10 17/17/10 18/18/10 15/14/10
f 20/19/11 21/20/11 22/21/11 19/22/11
f 20/19/12 19/22/12 23/23/12 24/24/12
f 18/18/13 17/17/13 24/24/13 23/23/13
f 14/16/14 16/15/14 22/21/14 21/20/14
f 15/14/7 18/18/7 23/23/7 19/22/7
f 16/15/7 15/14/7 19/22/7 22/21/7
f 13/13/8 14/16/8 21/20/8 20/19/8
f 17/17/8 13/13/8 20/19/8 24/24/8
