# Blender v3.3.1 OBJ File: 'Warsaw-BTR82A.blend'
# www.blender.org
mtllib Warsaw-BTR82A-Turret.mtl
o BTR82A_Turret_Cube.003
v -0.132186 0.781247 0.002181
v -0.271087 0.451354 -0.152069
v 0.378029 0.333400 -0.096092
v 0.263064 0.521346 -0.096092
v 0.189014 0.333400 0.231290
v 0.131532 0.521346 0.131728
v -0.189014 0.333400 0.231290
v -0.131532 0.521346 0.131728
v -0.378028 0.333400 -0.096092
v -0.263064 0.521346 -0.096092
v -0.189014 0.333400 -0.423475
v -0.131532 0.521346 -0.323912
v 0.189014 0.333400 -0.423475
v 0.131532 0.521346 -0.323912
v -0.131825 0.451354 -0.152069
v -0.131825 0.704263 0.112229
v -0.271087 0.315968 0.029357
v -0.132186 0.535244 0.002181
v -0.131825 0.315968 0.029357
v -0.131825 0.636940 0.222634
v -0.271087 0.638824 0.046366
v -0.180926 0.704263 0.112229
v -0.180926 0.636940 0.222634
v -0.271087 0.555637 0.182787
v 0.132186 0.535244 0.002181
v 0.132186 0.781247 0.002181
v -0.110038 0.557393 0.266553
v -0.110038 0.759099 0.266553
v 0.110038 0.557393 0.266553
v 0.110038 0.759099 0.266553
v 0.132186 0.781247 0.266553
v 0.132186 0.535244 0.266553
v -0.132186 0.535244 0.266553
v -0.132186 0.781247 0.266553
v 0.110038 0.759099 0.328467
v 0.110038 0.557393 0.328467
v -0.110038 0.557393 0.328467
v -0.110038 0.759099 0.328467
v 0.110038 0.759099 0.419190
v 0.110038 0.630682 0.419190
v -0.110038 0.630682 0.419190
v -0.110038 0.759099 0.419190
v 0.271087 0.451354 -0.152069
v 0.131825 0.451354 -0.152069
v 0.131825 0.704263 0.112229
v 0.271087 0.315968 0.029357
v 0.131825 0.315968 0.029357
v 0.131825 0.636940 0.222634
v 0.271087 0.638824 0.046366
v 0.180926 0.704263 0.112229
v 0.180926 0.636940 0.222634
v 0.271087 0.555637 0.182787
v 0.047201 0.664178 -0.268732
v 0.068792 0.664178 0.004362
v 0.023601 0.623300 -0.268732
v 0.034396 0.604602 0.004362
v -0.023601 0.623300 -0.268732
v -0.034396 0.604602 0.004362
v -0.047201 0.664178 -0.268732
v -0.068792 0.664178 0.004362
v -0.023601 0.705055 -0.268732
v -0.034396 0.723753 0.004362
v 0.023600 0.705055 -0.268732
v 0.034396 0.723753 0.004362
v 0.068792 0.664178 -0.268732
v 0.034396 0.604602 -0.268732
v -0.034396 0.604602 -0.268732
v -0.068792 0.664178 -0.268732
v -0.034396 0.723753 -0.268732
v 0.034396 0.723753 -0.268732
v 0.047201 0.664178 -1.027249
v 0.023600 0.623300 -1.027249
v -0.023601 0.623300 -1.027249
v -0.047201 0.664178 -1.027249
v -0.023601 0.705055 -1.027249
v 0.023600 0.705055 -1.027249
v 0.033645 0.846286 0.028665
v 0.051239 0.846286 0.145376
v 0.016822 0.817148 0.028665
v 0.025620 0.801911 0.145376
v -0.016823 0.817148 0.028665
v -0.025620 0.801911 0.145376
v -0.033645 0.846286 0.028665
v -0.051239 0.846286 0.145376
v -0.016823 0.875423 0.028665
v -0.025620 0.890660 0.145376
v 0.016822 0.875423 0.028665
v 0.025620 0.890660 0.145376
v 0.051239 0.846286 0.028665
v 0.025620 0.801911 0.028665
v -0.025620 0.801911 0.028665
v -0.051239 0.846286 0.028665
v -0.025620 0.890660 0.028665
v 0.025620 0.890660 0.028665
v 0.033645 0.846286 0.052151
v 0.016822 0.817148 0.052151
v -0.016823 0.817148 0.052151
v -0.033645 0.846286 0.052151
v -0.016823 0.875423 0.052151
v 0.016822 0.875423 0.052151
v -0.065886 0.776137 0.062473
v -0.065886 0.870833 0.062473
v -0.050955 0.776137 0.062473
v -0.050955 0.870833 0.062473
v -0.065886 0.776137 0.111568
v -0.065886 0.870833 0.111568
v -0.050955 0.776137 0.111568
v -0.050955 0.870833 0.111568
v 0.065887 0.776137 0.062473
v 0.065887 0.870833 0.062473
v 0.050955 0.776137 0.062473
v 0.050955 0.870833 0.062473
v 0.065887 0.776137 0.111568
v 0.065887 0.870833 0.111568
v 0.050955 0.776137 0.111568
v 0.050955 0.870833 0.111568
v -0.257183 0.385342 -0.174604
v -0.356553 0.575272 -0.174604
v -0.272234 0.377468 -0.145182
v -0.371604 0.567397 -0.145182
v -0.302336 0.361718 -0.145182
v -0.401706 0.551648 -0.145182
v -0.317387 0.353844 -0.174604
v -0.416757 0.543774 -0.174604
v -0.302336 0.361718 -0.204025
v -0.401706 0.551648 -0.204025
v -0.272234 0.377468 -0.204025
v -0.371604 0.567397 -0.204025
v 0.257183 0.385342 -0.174604
v 0.356553 0.575272 -0.174604
v 0.272234 0.377468 -0.145182
v 0.371604 0.567397 -0.145182
v 0.302336 0.361718 -0.145182
v 0.401706 0.551648 -0.145182
v 0.317388 0.353844 -0.174604
v 0.416757 0.543774 -0.174604
v 0.302336 0.361718 -0.204025
v 0.401706 0.551648 -0.204025
v 0.272234 0.377468 -0.204025
v 0.371604 0.567397 -0.204025
vt 0.543763 0.887915
vt 0.543763 0.887915
vt 0.543763 0.887915
vt 0.543763 0.887915
vt 0.101957 0.956124
vt 0.101957 0.956124
vt 0.101957 0.956124
vt 0.101957 0.956124
vt 0.101957 0.956124
vt 0.543763 0.887915
vt 0.543763 0.887915
vt 0.023308 0.395759
vt 0.023308 0.395759
vt 0.023308 0.395759
vt 0.023308 0.395759
vt 0.543763 0.887915
vt 0.543763 0.887915
vt 0.101957 0.956124
vt 0.101957 0.956124
vt 0.543763 0.887915
vt 0.543763 0.887915
vt 0.543763 0.887915
vt 0.101957 0.956124
vt 0.101957 0.956124
vt 0.543763 0.887915
vt 0.101957 0.956124
vt 0.023308 0.395759
vt 0.023308 0.395759
vt 0.023308 0.395759
vt 0.023308 0.395759
vt 0.023308 0.395759
vt 0.023308 0.395759
vt 0.023308 0.395759
vt 0.023308 0.395759
vt 0.023308 0.395759
vt 0.023308 0.395759
vt 0.023308 0.395759
vt 0.023308 0.395759
vt 0.023308 0.395759
vt 0.023308 0.395759
vt 0.023308 0.395759
vt 0.023308 0.395759
vt 0.101957 0.956124
vt 0.101957 0.956124
vt 0.101957 0.956124
vt 0.101957 0.956124
vt 0.101957 0.956124
vt 0.101957 0.956124
vt 0.101957 0.956124
vt 0.101957 0.956124
vt 0.101957 0.956124
vt 0.101957 0.956124
vt 0.023308 0.395759
vt 0.023308 0.395759
vt 0.023308 0.395759
vt 0.023308 0.395759
vt 0.023308 0.395759
vt 0.023308 0.395759
vt 0.023308 0.395759
vt 0.023308 0.395759
vt 0.023308 0.395759
vt 0.023308 0.395759
vt 0.023308 0.395759
vt 0.023308 0.395759
vt 0.023308 0.395759
vt 0.023308 0.395759
vt 0.023308 0.395759
vt 0.023308 0.395759
vt 0.023308 0.395759
vt 0.023308 0.395759
vt 0.023308 0.395759
vt 0.023308 0.395759
vt 0.023308 0.395759
vt 0.023308 0.395759
vt 0.023308 0.395759
vt 0.023308 0.395759
vt 0.118959 0.786353
vt 0.118959 0.786353
vt 0.118959 0.786353
vt 0.118959 0.786353
vt 0.118959 0.786353
vt 0.118959 0.786353
vt 0.118959 0.786353
vt 0.118959 0.786353
vt 0.118959 0.786353
vt 0.118959 0.786353
vt 0.118959 0.786353
vt 0.118959 0.786353
vt 0.118959 0.786353
vt 0.118959 0.786353
vt 0.118959 0.786353
vt 0.118959 0.786353
vt 0.118959 0.786353
vt 0.118959 0.786353
vt 0.118959 0.786353
vt 0.118959 0.786353
vt 0.007344 0.910368
vt 0.007344 0.910368
vt 0.007344 0.910368
vt 0.007344 0.910368
vt 0.007344 0.910368
vt 0.007344 0.910368
vt 0.118959 0.786353
vt 0.118959 0.786353
vt 0.118959 0.786353
vt 0.118959 0.786353
vt 0.118959 0.786353
vt 0.118959 0.786353
vt 0.118959 0.786353
vt 0.118959 0.786353
vt 0.118959 0.786353
vt 0.118959 0.786353
vt 0.118959 0.786353
vt 0.118959 0.786353
vt 0.118959 0.786353
vt 0.118959 0.786353
vt 0.118959 0.786353
vt 0.118959 0.786353
vt 0.118959 0.786353
vt 0.118959 0.786353
vt 0.118959 0.786353
vt 0.118959 0.786353
vt 0.179567 0.828856
vt 0.179567 0.828856
vt 0.179567 0.828856
vt 0.179567 0.828856
vt 0.179567 0.828856
vt 0.179567 0.828856
vt 0.179567 0.828856
vt 0.179567 0.828856
vt 0.179567 0.828856
vt 0.179567 0.828856
vt 0.179567 0.828856
vt 0.179567 0.828856
vt 0.179567 0.828856
vt 0.179567 0.828856
vt 0.179567 0.828856
vt 0.179567 0.828856
vt 0.179567 0.828856
vt 0.179567 0.828856
vt 0.179567 0.828856
vt 0.179567 0.828856
vt 0.179567 0.828856
vt 0.179567 0.828856
vt 0.179567 0.828856
vt 0.179567 0.828856
vn 0.8531 0.5218 -0.0000
vn 0.5931 0.8051 -0.0000
vn 0.2965 0.8051 0.5136
vn 0.4265 0.5218 0.7388
vn 0.6954 -0.3752 0.6129
vn 0.5906 0.1896 0.7844
vn -0.2887 0.2927 0.9116
vn -0.7020 -0.0879 0.7067
vn -0.6788 -0.3834 0.6263
vn -0.2965 0.8051 0.5136
vn -0.4265 0.5218 0.7388
vn -0.7071 0.0000 -0.7071
vn -0.5774 0.5774 -0.5774
vn 0.5774 0.5774 -0.5774
vn 0.7071 0.0000 -0.7071
vn -0.5931 0.8051 0.0000
vn -0.8531 0.5218 0.0000
vn 0.6637 0.5413 -0.5162
vn 0.5898 0.8030 -0.0863
vn -0.2965 0.8051 -0.5136
vn -0.4265 0.5218 -0.7388
vn 0.2965 0.8051 -0.5136
vn -0.7131 0.6422 -0.2813
vn -0.6677 0.5387 -0.5138
vn 0.4265 0.5218 -0.7388
vn -0.2919 0.9558 -0.0366
vn 0.5774 0.5774 0.5774
vn 0.7071 0.0000 0.7071
vn -0.3015 -0.3015 0.9045
vn 0.3015 -0.3015 0.9045
vn 0.6392 -0.7251 0.2563
vn -0.6392 -0.7251 0.2563
vn -0.7071 0.0000 0.7071
vn -0.5774 0.5774 0.5774
vn 0.3015 0.3015 0.9045
vn -0.3015 0.3015 0.9045
vn 0.7071 0.7071 -0.0000
vn -0.7071 0.7071 0.0000
vn 0.6217 -0.3376 0.7067
vn -0.6217 -0.3376 0.7067
vn -0.6954 -0.3752 0.6129
vn 0.6788 -0.3834 0.6263
vn 0.7020 -0.0879 0.7067
vn 0.2887 0.2927 0.9116
vn -0.5906 0.1896 0.7844
vn -0.6637 0.5413 -0.5162
vn -0.5898 0.8030 -0.0863
vn 0.6677 0.5387 -0.5138
vn 0.7131 0.6422 -0.2813
vn 0.2919 0.9558 -0.0366
vn 0.7924 0.0000 -0.6100
vn 0.7924 0.0000 0.6100
vn 0.3962 -0.6862 0.6100
vn 0.3962 -0.6862 -0.6100
vn -0.3962 -0.6862 0.6100
vn -0.3962 -0.6862 -0.6100
vn -0.7924 -0.0000 0.6100
vn -0.7924 -0.0000 -0.6100
vn -0.3962 0.6862 0.6100
vn -0.3962 0.6862 -0.6100
vn 0.3962 0.6862 0.6100
vn 0.3962 0.6862 -0.6100
vn 0.2724 -0.4717 -0.8386
vn -0.2724 -0.4717 -0.8386
vn 0.5447 0.0000 -0.8386
vn -0.5447 -0.0000 -0.8386
vn -0.2724 0.4717 -0.8386
vn 0.2724 0.4717 -0.8386
vn -0.5774 0.5773 -0.5774
vn 0.5774 0.5773 -0.5774
vn 0.5774 0.5774 0.5773
vn -0.5774 0.5774 0.5773
vn 0.8861 0.4636 -0.0000
vn 0.4193 0.9078 -0.0000
vn 0.0683 0.7242 0.6862
vn 0.4430 0.2318 0.8660
vn -0.6338 0.3568 0.6862
vn -0.4430 -0.2318 0.8660
vn -0.9849 0.1731 -0.0000
vn -0.8861 -0.4636 -0.0000
vn -0.6338 0.3568 -0.6862
vn -0.4430 -0.2318 -0.8660
vn 0.0683 0.7242 -0.6862
vn 0.4430 0.2318 -0.8660
vn -0.8861 0.4636 -0.0000
vn -0.4430 0.2318 0.8660
vn -0.0683 0.7242 0.6862
vn -0.4193 0.9078 -0.0000
vn 0.4430 -0.2318 0.8660
vn 0.6338 0.3568 0.6862
vn 0.8861 -0.4636 -0.0000
vn 0.9849 0.1731 -0.0000
vn 0.4430 -0.2318 -0.8660
vn 0.6338 0.3568 -0.6862
vn -0.0683 0.7242 -0.6862
vn -0.4430 0.2318 -0.8660
usemtl Material
s 1
f 3/1/1 4/2/2 6/3/3 5/4/4
f 19/5/5 20/6/6 23/7/7 24/8/8 17/9/9
f 5/4/4 6/3/3 8/10/10 7/11/11
f 18/12/12 1/13/13 26/14/14 25/15/15
f 7/11/11 8/10/10 10/16/16 9/17/17
f 15/18/18 16/19/19 20/6/6 19/5/5
f 9/17/17 10/16/16 12/20/20 11/21/21
f 6/3/3 4/2/2 14/22/22 12/20/20 10/16/16 8/10/10
f 17/9/9 24/8/8 21/23/23 2/24/24
f 11/21/21 12/20/20 14/22/22 13/25/25
f 2/24/24 21/23/23 22/26/26 16/19/19 15/18/18
f 13/25/25 14/22/22 4/2/2 3/1/1
f 23/7/7 22/26/26 21/23/23 24/8/8
f 20/6/6 16/19/19 22/26/26 23/7/7
f 25/15/15 26/14/14 31/27/27 32/28/28
f 27/29/29 29/30/30 36/31/31 37/32/32
f 33/33/33 34/34/34 1/13/13 18/12/12
f 31/27/27 26/14/14 1/13/13 34/34/34
f 30/35/35 29/30/30 32/28/28 31/27/27
f 29/30/30 27/29/29 33/33/33 32/28/28
f 28/36/36 30/35/35 31/27/27 34/34/34
f 27/29/29 28/36/36 34/34/34 33/33/33
f 35/37/37 38/38/38 42/39/34 39/40/27
f 30/35/35 28/36/36 38/38/38 35/37/37
f 29/30/30 30/35/35 35/37/37 36/31/31
f 28/36/36 27/29/29 37/32/32 38/38/38
f 40/41/39 39/40/27 42/39/34 41/42/40
f 36/31/31 35/37/37 39/40/27 40/41/39
f 38/38/38 37/32/32 41/42/40 42/39/34
f 37/32/32 36/31/31 40/41/39 41/42/40
f 47/43/41 46/44/42 52/45/43 51/46/44 48/47/45
f 44/48/46 47/43/41 48/47/45 45/49/47
f 46/44/42 43/50/48 49/51/49 52/45/43
f 43/50/48 44/48/46 45/49/47 50/52/50 49/51/49
f 51/46/44 52/45/43 49/51/49 50/52/50
f 48/47/45 51/46/44 50/52/50 45/49/47
f 65/53/51 54/54/52 56/55/53 66/56/54
f 66/56/54 56/55/53 58/57/55 67/58/56
f 67/58/56 58/57/55 60/59/57 68/60/58
f 68/60/58 60/59/57 62/61/59 69/62/60
f 56/55/53 54/54/52 64/63/61 62/61/59 60/59/57 58/57/55
f 69/62/60 62/61/59 64/63/61 70/64/62
f 70/64/62 64/63/61 54/54/52 65/53/51
f 55/65/63 57/66/64 73/67/56 72/68/54
f 55/65/63 53/69/65 65/53/51 66/56/54
f 57/66/64 55/65/63 66/56/54 67/58/56
f 59/70/66 57/66/64 67/58/56 68/60/58
f 61/71/67 59/70/66 68/60/58 69/62/60
f 63/72/68 61/71/67 69/62/60 70/64/62
f 53/69/65 63/72/68 70/64/62 65/53/51
f 71/73/51 72/68/54 73/67/56 74/74/58 75/75/60 76/76/62
f 61/71/67 63/72/68 76/76/62 75/75/60
f 57/66/64 59/70/66 74/74/58 73/67/56
f 53/69/65 55/65/63 72/68/54 71/73/51
f 63/72/68 53/69/65 71/73/51 76/76/62
f 59/70/66 61/71/67 75/75/60 74/74/58
f 89/77/51 78/78/52 80/79/53 90/80/54
f 90/80/54 80/79/53 82/81/55 91/82/56
f 91/82/56 82/81/55 84/83/57 92/84/58
f 92/84/58 84/83/57 86/85/59 93/86/60
f 80/79/53 78/78/52 88/87/61 86/85/59 84/83/57 82/81/55
f 93/86/60 86/85/59 88/87/61 94/88/62
f 94/88/62 88/87/61 78/78/52 89/77/51
f 85/89/63 87/90/64 100/91/56 99/92/54
f 79/93/67 77/94/66 89/77/51 90/80/54
f 81/95/68 79/93/67 90/80/54 91/82/56
f 83/96/65 81/95/68 91/82/56 92/84/58
f 85/89/63 83/96/65 92/84/58 93/86/60
f 87/90/64 85/89/63 93/86/60 94/88/62
f 77/94/66 87/90/64 94/88/62 89/77/51
f 95/97/58 96/98/60 97/99/62 98/100/51 99/101/54 100/102/56
f 81/95/68 83/96/65 98/103/51 97/104/62
f 77/94/66 79/93/67 96/105/60 95/106/58
f 87/90/64 77/94/66 95/106/58 100/91/56
f 83/96/65 85/89/63 99/92/54 98/103/51
f 79/93/67 81/95/68 97/104/62 96/105/60
f 101/107/12 102/108/69 104/109/70 103/110/15
f 103/110/15 104/109/70 108/111/71 107/112/28
f 107/112/28 108/111/71 106/113/72 105/114/33
f 105/114/33 106/113/72 102/108/69 101/107/12
f 109/115/15 111/116/12 112/117/13 110/118/14
f 108/111/71 104/109/70 102/108/69 106/113/72
f 111/116/12 115/119/33 116/120/34 112/117/13
f 115/119/33 113/121/28 114/122/27 116/120/34
f 113/121/28 109/115/15 110/118/14 114/122/27
f 116/120/34 114/122/27 110/118/14 112/117/13
f 117/123/73 118/124/74 120/125/75 119/126/76
f 119/126/76 120/125/75 122/127/77 121/128/78
f 121/128/78 122/127/77 124/129/79 123/130/80
f 123/130/80 124/129/79 126/131/81 125/132/82
f 120/125/75 118/124/74 128/133/83 126/131/81 124/129/79 122/127/77
f 125/132/82 126/131/81 128/133/83 127/134/84
f 127/134/84 128/133/83 118/124/74 117/123/73
f 129/135/85 131/136/86 132/137/87 130/138/88
f 131/136/86 133/139/89 134/140/90 132/137/87
f 133/139/89 135/141/91 136/142/92 134/140/90
f 135/141/91 137/143/93 138/144/94 136/142/92
f 132/137/87 134/140/90 136/142/92 138/144/94 140/145/95 130/138/88
f 137/143/93 139/146/96 140/145/95 138/144/94
f 139/146/96 129/135/85 130/138/88 140/145/95
